<mxfile host="65bd71144e">
    <diagram id="p693WJ-BOVBIbAue1NAQ" name="Page-1">
        <mxGraphModel dx="592" dy="628" grid="1" gridSize="10" guides="1" tooltips="1" connect="1" arrows="1" fold="1" page="1" pageScale="1" pageWidth="827" pageHeight="1169" background="#ffffff" math="0" shadow="1">
            <root>
                <mxCell id="0"/>
                <mxCell id="1" parent="0"/>
                <mxCell id="19" value="" style="group;labelBackgroundColor=none;" parent="1" vertex="1" connectable="0">
                    <mxGeometry x="30" y="30" width="210" height="560" as="geometry"/>
                </mxCell>
                <mxCell id="17" value="" style="rounded=0;whiteSpace=wrap;html=1;dashed=1;labelBackgroundColor=none;fillColor=none;" parent="19" vertex="1">
                    <mxGeometry y="40" width="210" height="520" as="geometry"/>
                </mxCell>
                <mxCell id="2" value="MDAT binary" style="rounded=1;whiteSpace=wrap;html=1;labelBackgroundColor=none;" parent="19" vertex="1">
                    <mxGeometry x="50" y="260" width="120" height="60" as="geometry"/>
                </mxCell>
                <mxCell id="3" value="MDAT text" style="rounded=1;whiteSpace=wrap;html=1;labelBackgroundColor=none;" parent="19" vertex="1">
                    <mxGeometry x="50" y="370" width="120" height="60" as="geometry"/>
                </mxCell>
                <mxCell id="4" value="MDAT XML DOM" style="rounded=1;whiteSpace=wrap;html=1;labelBackgroundColor=none;" parent="19" vertex="1">
                    <mxGeometry x="50" y="480" width="120" height="60" as="geometry"/>
                </mxCell>
                <mxCell id="5" value="" style="rounded=1;whiteSpace=wrap;html=1;fillColor=#f5f5f5;fontColor=#333333;strokeColor=#666666;labelBackgroundColor=none;" parent="19" vertex="1">
                    <mxGeometry x="10" y="100" width="170" height="110" as="geometry"/>
                </mxCell>
                <mxCell id="6" value="MDAT" style="rounded=1;whiteSpace=wrap;html=1;labelBackgroundColor=none;" parent="19" vertex="1">
                    <mxGeometry x="50" y="130" width="120" height="70" as="geometry"/>
                </mxCell>
                <mxCell id="7" value="MP4" style="text;html=1;strokeColor=none;fillColor=none;align=center;verticalAlign=middle;whiteSpace=wrap;rounded=0;labelBackgroundColor=none;" parent="19" vertex="1">
                    <mxGeometry x="80" y="100" width="60" height="30" as="geometry"/>
                </mxCell>
                <mxCell id="8" value="" style="endArrow=classic;html=1;entryX=0.5;entryY=0;entryDx=0;entryDy=0;labelBackgroundColor=none;" parent="19" source="2" target="3" edge="1">
                    <mxGeometry width="50" height="50" relative="1" as="geometry">
                        <mxPoint x="-20" y="270" as="sourcePoint"/>
                        <mxPoint x="30" y="220" as="targetPoint"/>
                    </mxGeometry>
                </mxCell>
                <mxCell id="9" value="decode text UTF-8" style="edgeLabel;html=1;align=center;verticalAlign=middle;resizable=0;points=[];labelBackgroundColor=none;" parent="8" vertex="1" connectable="0">
                    <mxGeometry x="-0.1677" y="1" relative="1" as="geometry">
                        <mxPoint as="offset"/>
                    </mxGeometry>
                </mxCell>
                <mxCell id="10" value="" style="endArrow=classic;html=1;labelBackgroundColor=none;" parent="19" source="3" target="4" edge="1">
                    <mxGeometry width="50" height="50" relative="1" as="geometry">
                        <mxPoint x="120" y="340" as="sourcePoint"/>
                        <mxPoint x="120" y="380" as="targetPoint"/>
                    </mxGeometry>
                </mxCell>
                <mxCell id="11" value="parse XML DOM from text" style="edgeLabel;html=1;align=center;verticalAlign=middle;resizable=0;points=[];labelBackgroundColor=none;" parent="10" vertex="1" connectable="0">
                    <mxGeometry x="-0.1677" y="1" relative="1" as="geometry">
                        <mxPoint as="offset"/>
                    </mxGeometry>
                </mxCell>
                <mxCell id="12" value="" style="endArrow=classic;html=1;entryX=0.5;entryY=0;entryDx=0;entryDy=0;labelBackgroundColor=none;" parent="19" source="6" target="2" edge="1">
                    <mxGeometry width="50" height="50" relative="1" as="geometry">
                        <mxPoint x="120" y="330" as="sourcePoint"/>
                        <mxPoint x="120" y="380" as="targetPoint"/>
                    </mxGeometry>
                </mxCell>
                <mxCell id="13" value="copy MDAT box content" style="edgeLabel;html=1;align=center;verticalAlign=middle;resizable=0;points=[];labelBackgroundColor=none;" parent="12" vertex="1" connectable="0">
                    <mxGeometry x="-0.1677" y="1" relative="1" as="geometry">
                        <mxPoint x="3" y="5" as="offset"/>
                    </mxGeometry>
                </mxCell>
                <mxCell id="16" value="Processing of MDAT box(es) of a media file" style="text;html=1;strokeColor=none;fillColor=none;align=center;verticalAlign=middle;whiteSpace=wrap;rounded=0;fontStyle=1;labelBackgroundColor=none;" parent="19" vertex="1">
                    <mxGeometry x="25" width="170" height="30" as="geometry"/>
                </mxCell>
                <mxCell id="18" value="&lt;b&gt;RAM&lt;/b&gt;" style="text;html=1;strokeColor=none;fillColor=none;align=center;verticalAlign=middle;whiteSpace=wrap;rounded=0;dashed=1;labelBackgroundColor=none;" parent="19" vertex="1">
                    <mxGeometry x="80" y="50" width="60" height="30" as="geometry"/>
                </mxCell>
            </root>
        </mxGraphModel>
    </diagram>
</mxfile>
